PathFileType	3	(X/Y/Z)	C:\Users\dbak576\Desktop\AnkleMomentFeedback\AB28\AB28_05Apr - Copy\AB28_05Apr_static_01.trc
DataRate	CameraRate	NumFrames	NumMarkers	Units	OrigDataRate	OrigDataStartFrame	OrigNumFrames
200.0	200.0	4	42	mm	200.0	18	141	
Frame#	Time	LASI			RASI			LPSI			RPSI			LTH1			LTH2			LTH3			LTH4			LMFC			LLFC			LTB1			LTB2			LTB3			LTB4			LMMAL			LLMAL			LCAL			LToe			LMT1			LMT5			RTH1			RTH2			RTH3			RTH4			RMFC			RLFC			RTB1			RTB2			RTB3			RTB4			RMMAL			RLMAL			RCAL			RToe			RMT1			RMT5			C7			T10			LACR1			RACR1			CLAV			RBack			
		X1	Y1	Z1	X2	Y2	Z2	X3	Y3	Z3	X4	Y4	Z4	X5	Y5	Z5	X6	Y6	Z6	X7	Y7	Z7	X8	Y8	Z8	X9	Y9	Z9	X10	Y10	Z10	X11	Y11	Z11	X12	Y12	Z12	X13	Y13	Z13	X14	Y14	Z14	X15	Y15	Z15	X16	Y16	Z16	X17	Y17	Z17	X18	Y18	Z18	X19	Y19	Z19	X20	Y20	Z20	X21	Y21	Z21	X22	Y22	Z22	X23	Y23	Z23	X24	Y24	Z24	X25	Y25	Z25	X26	Y26	Z26	X27	Y27	Z27	X28	Y28	Z28	X29	Y29	Z29	X30	Y30	Z30	X31	Y31	Z31	X32	Y32	Z32	X33	Y33	Z33	X34	Y34	Z34	X35	Y35	Z35	X36	Y36	Z36	X37	Y37	Z37	X38	Y38	Z38	X39	Y39	Z39	X40	Y40	Z40	X41	Y41	Z41	X42	Y42	Z42	
18	0.08	341.95453	991.91638	-819.90265	589.57361	1006.2216	-826.70343	424.93863	1033.8975	-646.37311	516.59113	1035.4418	-645.28046	282.35641	799.62756	-791.37317	327.72476	798.12134	-838.00385	303.2836	757.18597	-818.5946	292.44833	708.10315	-800.65399	406.0889	496.05115	-725.17902	290.23154	523.60944	-715.88788	265.33792	398.2464	-662.63544	265.15588	359.0697	-693.31299	276.38568	309.21283	-712.24646	273.54828	400.69647	-724.24841	376.83023	108.58946	-717.75879	292.31726	91.177498	-684.79431	348.397	47.390381	-620.62494	329.05362	51.694881	-896.33362	362.87332	38.089069	-835.72675	251.80661	38.469585	-801.7149	663.61108	849.70416	-788.70142	677.25317	806.98456	-756.87451	676.51013	775.6593	-719.802	675.23572	759.48981	-779.74658	545.2384	505.14548	-723.88257	665.12079	518.62244	-709.64825	664.77124	260.98904	-722.57367	675.55438	262.9364	-656.07336	675.43335	224.08456	-687.0799	666.2005	172.94592	-707.94775	586.24628	108.6959	-710.32025	667.76801	97.360527	-671.93481	601.99445	50.625233	-616.30585	663.27118	54.179089	-887.69	619.35339	42.457401	-828.6601	720.9491	44.949703	-779.11456	458.34555	1506.8337	-684.92853	467.66733	1237.6053	-615.34753	289.11472	1483.9713	-730.46368	634.59583	1461.7213	-744.96393	462.05197	1428.6608	-824.66779	581.57031	1380.2917	-619.11371
19	0.085	341.99936	991.90155	-819.94397	589.58264	1006.2194	-826.7218	424.97888	1033.8977	-646.37067	516.60724	1035.3746	-645.36536	282.3866	799.61676	-791.38538	327.73621	798.12421	-838.1377	303.30396	757.14612	-818.60333	292.45059	708.10632	-800.65985	406.0777	496.02951	-725.20679	290.22714	523.60413	-715.90381	265.34509	398.21823	-662.63843	265.16351	359.0531	-693.25378	276.37994	309.20584	-712.23474	273.53983	400.66089	-724.23907	376.87173	108.58016	-717.80676	292.32529	91.191574	-684.79694	348.39813	47.393082	-620.62451	329.09912	51.696877	-896.32709	362.85965	38.098869	-835.74371	251.80957	38.458477	-801.70178	663.65668	849.72058	-788.71027	677.25684	806.98175	-756.90802	676.52765	775.63892	-719.9079	675.27069	759.49634	-779.82013	545.20563	505.12558	-723.79688	665.12152	518.63684	-709.65826	664.77344	260.97284	-722.57751	675.50928	262.94202	-656.06561	675.45264	224.07819	-687.09265	666.23145	172.94638	-707.93365	586.26483	108.69187	-710.28516	667.75372	97.410873	-671.99878	602.03198	50.585018	-616.33661	663.33545	54.219238	-887.70349	619.43677	42.49297	-828.6944	720.9516	44.952007	-779.11597	458.32568	1506.826	-684.97443	467.70276	1237.6144	-615.34033	289.12762	1483.9443	-730.4834	634.61591	1461.6858	-745.01855	462.04926	1428.6555	-824.64233	581.57745	1380.2709	-619.20703
20	0.09	342.01212	991.90393	-819.96735	589.612	1006.2277	-826.75989	424.93167	1033.9403	-646.48444	516.57794	1035.3866	-645.30737	282.4017	799.58228	-791.3313	327.75702	798.19818	-838.31909	303.28278	757.16364	-818.62421	292.45947	708.07214	-800.73419	406.08405	496.04099	-725.19635	290.2063	523.63068	-715.9491	265.31161	398.24896	-662.66003	265.17245	359.0051	-693.27228	276.3652	309.1958	-712.26428	273.12378	400.73074	-724.15845	376.86749	108.59317	-717.74615	292.31906	91.180138	-684.81323	348.43195	47.370087	-620.61682	329.07294	51.713577	-896.34277	362.86813	38.069229	-835.73438	251.79297	38.46059	-801.71906	663.65698	849.70203	-788.70056	677.27588	806.96332	-756.93634	676.5274	775.63123	-719.8371	675.27014	759.49719	-779.81769	545.26581	505.09186	-723.77887	665.14374	518.62677	-709.65143	664.78894	260.98471	-722.58844	675.49469	262.9317	-656.07715	675.45093	224.09021	-687.08313	666.19232	172.92494	-707.96655	586.26331	108.66515	-710.25146	667.75317	97.385201	-671.96118	602.00128	50.618042	-616.31915	663.28845	54.178108	-887.69073	619.40613	42.513424	-828.73138	720.93335	44.955017	-779.08618	458.32281	1506.829	-685.01416	467.69748	1237.595	-615.38324	289.1088	1483.939	-730.54321	634.6944	1461.725	-744.95447	462.08832	1428.6409	-824.72363	581.55804	1380.2292	-619.16919
21	0.095	342.05893	991.92908	-819.99628	589.60913	1006.2182	-826.75232	424.95911	1033.8519	-646.4455	516.60651	1035.3633	-645.39142	282.41653	799.60754	-791.39294	327.80405	798.14569	-838.11737	303.30173	757.16913	-818.65961	292.47223	708.08276	-800.72644	406.1684	495.98328	-725.10333	290.25299	523.63055	-715.94116	265.36975	398.25534	-662.62262	265.17184	359.04919	-693.29694	276.29684	309.24274	-712.33435	273.27908	400.71826	-724.18115	376.87729	108.58614	-717.75842	292.31613	91.180901	-684.79028	348.3967	47.369083	-620.61713	329.09561	51.688992	-896.32465	362.89249	38.102509	-835.71521	251.79723	38.44944	-801.69812	663.69025	849.69684	-788.68854	677.30353	806.97595	-756.88092	676.57361	775.62274	-719.8313	675.27301	759.4787	-779.83099	545.297	505.12881	-723.83124	665.20111	518.62543	-709.65247	664.73798	260.96445	-722.52094	675.54858	262.95377	-656.07666	675.47577	224.09538	-687.08478	666.20654	172.9305	-707.94714	586.30731	108.65874	-710.18866	667.76001	97.353317	-671.93115	601.99091	50.599495	-616.31171	663.27576	54.182159	-887.68353	619.41498	42.470642	-828.64563	720.95123	44.950443	-779.11487	458.31064	1506.8085	-685.03546	467.66519	1237.601	-615.39056	289.12244	1483.9598	-730.5705	634.70538	1461.7424	-744.97705	462.05771	1428.6013	-824.70807	581.54535	1380.2646	-619.16907
